<svg id="Layer_1" data-name="Layer 1" xmlns="http://www.w3.org/2000/svg" viewBox="0 0 389 390"><defs><style>.cls-1{opacity:0.4;}.cls-2{fill:#a62639;}.cls-3{fill:#0e7c7b;}</style></defs><title>fuel</title><g class="cls-1"><circle class="cls-2" cx="194.5" cy="194.5" r="192"/><path class="cls-3" d="M200.5,10a189.55,189.55,0,0,1,73.76,364.11A189.55,189.55,0,0,1,126.74,24.89,188.33,188.33,0,0,1,200.5,10m0-5C93.08,5,6,92.08,6,199.5S93.08,394,200.5,394,395,306.92,395,199.5,307.92,5,200.5,5Z" transform="translate(-6 -5)"/></g><path class="cls-2" d="M200.5,11a189.55,189.55,0,0,1,73.76,364.11A189.55,189.55,0,0,1,126.74,25.89,188.33,188.33,0,0,1,200.5,11m0-5C93.08,6,6,93.08,6,200.5S93.08,395,200.5,395,395,307.92,395,200.5,307.92,6,200.5,6Z" transform="translate(-6 -5)"/><path class="cls-2" d="M246.66,140.62l-5.06,5.06,10.79,10.79-11.84,5.92v27.23h14.3v39.31a3.58,3.58,0,1,1-7.15,0V214.64A10.74,10.74,0,0,0,237,203.91H226v-7.14H154.54v42.89H226v-28.6h11a3.57,3.57,0,0,1,3.57,3.58v14.29a10.73,10.73,0,1,0,21.45,0V156Zm-56.38,91.89a10.73,10.73,0,0,1-9.3-16.08h0l9.29-16.09,9.29,16.09a10.73,10.73,0,0,1-9.29,16.08Zm57.42-50V166.81l7.15-3.58v19.24Z" transform="translate(-6 -5)"/><path class="cls-2" d="M226,139.34H154.54v50.28H226Zm-14.3,43.13H168.83v-28.6h42.89Z" transform="translate(-6 -5)"/><path class="cls-2" d="M190.43,198.31l-9.87,17.09a11.39,11.39,0,1,0,19.74,0Z" transform="translate(-6 -5)"/><path class="cls-2" d="M176,161h28.59v14.3H176Z" transform="translate(-6 -5)"/><path class="cls-2" d="M145.18,246.8,140,261.34H240.86l-5.48-14.54Z" transform="translate(-6 -5)"/></svg>