<svg id="Layer_1" data-name="Layer 1" xmlns="http://www.w3.org/2000/svg" viewBox="0 0 389 390"><defs><style>.cls-1,.cls-4{opacity:0.4;}.cls-2,.cls-4{fill:#6320ee;}.cls-3{fill:#0e7c7b;}</style></defs><title>Snelheid</title><g class="cls-1"><circle class="cls-2" cx="194.5" cy="194.5" r="192"/><path class="cls-3" d="M200.5,10a189.55,189.55,0,0,1,73.76,364.11A189.55,189.55,0,0,1,126.74,24.89,188.33,188.33,0,0,1,200.5,10m0-5C93.08,5,6,92.08,6,199.5S93.08,394,200.5,394,395,306.92,395,199.5,307.92,5,200.5,5Z" transform="translate(-6 -5)"/></g><path class="cls-2" d="M200.5,11a189.55,189.55,0,0,1,73.76,364.11A189.55,189.55,0,0,1,126.74,25.89,188.33,188.33,0,0,1,200.5,11m0-5C93.08,6,6,93.08,6,200.5S93.08,395,200.5,395,395,307.92,395,200.5,307.92,6,200.5,6Z" transform="translate(-6 -5)"/><path class="cls-2" d="M196.13,199.92q20.28,0,40.56,0a9,9,0,0,1,3.1.48,4.68,4.68,0,0,1,3.43,4.93c0,5.87,0,11.74,0,17.61,0,2.58,1.06,3.9,3.11,3.94s3.28-1.33,3.29-4c0-5.67,0-11.34,0-17,0-1.09.13-1.51,1.38-1.28,8.58,1.55,16.7,4.2,23.65,9.69a29,29,0,0,1,7.39,8.66,4.34,4.34,0,0,1,0,4.65,31.56,31.56,0,0,1-12.29,12,57.85,57.85,0,0,1-18.56,6.34c-1.18.22-1.65.11-1.57-1.27.13-2.17.07-4.35,0-6.53s-1.33-3.41-3.29-3.36a3.09,3.09,0,0,0-3.1,3.36c0,2.24,0,4.48,0,6.72,0,3.5-2,5.59-5.56,5.72-1,0-2,0-3,0q-39.78,0-79.54,0c-1.81,0-2.15-.48-2.15-2.19q.09-23.34,0-46.69c0-1.47.33-1.84,1.82-1.83C168.56,200,182.35,199.93,196.13,199.92Z" transform="translate(-6 -5)"/><path class="cls-2" d="M127.86,225c0-8.3,0-16.59,0-24.89,0-4,2.55-6.42,6.58-6.46,1.91,0,3.82-.05,5.73,0,4.14.09,6.36,3,6.39,6.6.14,16.27.06,32.55.06,48.82,0,5.47-2.33,7.81-7.77,7.8h-4.35c-4.11,0-6.79-2.65-6.8-6.76,0-8.37,0-16.74,0-25.11Z" transform="translate(-6 -5)"/><path class="cls-2" d="M263.66,201.07c-1.86-.58-4.46-.62-5.38-1.88-.79-1.1.38-3.57.57-5.44,1.27-12.5-1.82-23.82-9.76-33.58C238.78,147.49,225.24,141.87,209,143c-21,1.51-38.87,18.72-41.43,39.46a57.92,57.92,0,0,0-.27,9.67c.05,1-.18,1.35-1.25,1.4-5,.25-5.11.19-5.12-4.89a52.23,52.23,0,0,1,103.14-11.43C265.89,184.84,265.71,194.81,263.66,201.07Z" transform="translate(-6 -5)"/><path class="cls-2" d="M203.7,183c0-6.1,5.08-10.6,10.61-9.78a1.73,1.73,0,0,0,2-1c2.28-3.45,4.58-6.9,6.9-10.32a2.88,2.88,0,0,1,3.21-1.42,3.23,3.23,0,0,1,2.4,2.38,3.42,3.42,0,0,1-.82,2.92c-2.15,3.23-4.28,6.46-6.46,9.67a2.07,2.07,0,0,0-.18,2.59,9.28,9.28,0,0,1-12.53,12.69A9.86,9.86,0,0,1,203.7,183Z" transform="translate(-6 -5)"/><path class="cls-2" d="M100.94,222.13c5.54,0,11.08,0,16.62,0,3,0,4.59,2.42,3.23,4.7a3.12,3.12,0,0,1-2.82,1.53q-17.2,0-34.42,0a3.17,3.17,0,0,1-3.33-3.18,3.22,3.22,0,0,1,3.51-3C89.47,222.11,95.21,222.13,100.94,222.13Z" transform="translate(-6 -5)"/><path class="cls-2" d="M110.45,209.48c2.44,0,4.88,0,7.32,0,2.06,0,3.45,1.26,3.52,3a3.26,3.26,0,0,1-3.52,3.22c-5,0-10,0-15,0-2.11,0-3.59-1.44-3.51-3.21s1.44-3,3.51-3C105.3,209.44,107.88,209.48,110.45,209.48Z" transform="translate(-6 -5)"/><path class="cls-2" d="M110.05,241.05c-2.37,0-4.75,0-7.12,0s-3.79-1.38-3.72-3.22,1.5-3,3.72-3q7.32,0,14.64,0c2.21,0,3.64,1.21,3.72,3s-1.45,3.19-3.72,3.21C115.07,241.08,112.56,241.05,110.05,241.05Z" transform="translate(-6 -5)"/><path class="cls-2" d="M203.61,157.25a3.11,3.11,0,0,1-2,2.77,26.91,26.91,0,0,0-11.38,8.51,2.85,2.85,0,0,1-4.19.62,3,3,0,0,1-.64-4.35,29.5,29.5,0,0,1,14.38-10.59C201.56,153.59,203.55,155.21,203.61,157.25Z" transform="translate(-6 -5)"/><path class="cls-4" d="M189.34,219h-17.2c-.66,0-1.32,0-2,0a3.08,3.08,0,0,1-2.94-3.3,3,3,0,0,1,3-3c2.37-.09,4.75-.05,7.12-.05,10.21,0,20.43,0,30.64,0a3.25,3.25,0,0,1,3.51,2.27,3.14,3.14,0,0,1-1.12,3.54,4,4,0,0,1-2.82.62Z" transform="translate(-6 -5)"/><path class="cls-4" d="M176.72,231.62c-2.05,0-4.09,0-6.13,0a3.11,3.11,0,0,1-3.37-3.28,3,3,0,0,1,3.33-3.1q6.22-.08,12.45,0a3.19,3.19,0,1,1,0,6.37C180.93,231.67,178.82,231.62,176.72,231.62Z" transform="translate(-6 -5)"/></svg>