<svg id="Layer_1" data-name="Layer 1" xmlns="http://www.w3.org/2000/svg" viewBox="0 0 389 390"><defs><style>.cls-1{opacity:0.4;}.cls-2{fill:#0e7c7b;}</style></defs><title>water</title><g class="cls-1"><circle class="cls-2" cx="194.5" cy="194.5" r="192"/><path class="cls-2" d="M200.5,10a189.55,189.55,0,0,1,73.76,364.11A189.55,189.55,0,0,1,126.74,24.89,188.33,188.33,0,0,1,200.5,10m0-5C93.08,5,6,92.08,6,199.5S93.08,394,200.5,394,395,306.92,395,199.5,307.92,5,200.5,5Z" transform="translate(-6 -5)"/></g><path class="cls-2" d="M200.5,11a189.55,189.55,0,0,1,73.76,364.11A189.55,189.55,0,0,1,126.74,25.89,188.33,188.33,0,0,1,200.5,11m0-5C93.08,6,6,93.08,6,200.5S93.08,395,200.5,395,395,307.92,395,200.5,307.92,6,200.5,6Z" transform="translate(-6 -5)"/><path class="cls-2" d="M197.23,134.26l-37.35,65.13a46.26,46.26,0,1,0,80.26,0L202.8,134.26A3.21,3.21,0,0,0,197.23,134.26Z" transform="translate(-6 -5)"/></svg>